<?xml version="1.0" encoding="utf-8"?>
<!-- Generator: Adobe Illustrator 21.0.2, SVG Export Plug-In . SVG Version: 6.00 Build 0)  -->
<svg version="1.1" id="Layer_1" xmlns="http://www.w3.org/2000/svg" xmlns:xlink="http://www.w3.org/1999/xlink" x="0px" y="0px"
	 viewBox="0 0 30 30" style="enable-background:new 0 0 30 30;" xml:space="preserve">
<style type="text/css">
	svg {
		fill: white;
	}
	.st0{fill-rule:evenodd;clip-rule:evenodd;fill:#ffffff;}
	.st1{fill-rule:evenodd;clip-rule:evenodd;fill:#ffffff;}
	.st2{fill-rule:evenodd;clip-rule:evenodd;fill:#ffffff;}
	.st3{fill-rule:evenodd;clip-rule:evenodd;fill:#ffffff;}
	.st4{fill-rule:evenodd;clip-rule:evenodd;fill:#ffffff;}
	.st5{fill:none;stroke:#ffffff;stroke-width:2;stroke-linecap:round;stroke-linejoin:round;}
	.st6{fill:none;stroke:#ffffff;stroke-linecap:round;stroke-linejoin:round;stroke-miterlimit:10;}
	.st7{fill:none;stroke:#ffffff;stroke-width:1.2;stroke-miterlimit:10;}
</style>
<path d="M17.6,12.1l1.6-1.6c0.6,0.4,1.4,0.4,1.9-0.1l0,0c0.6-0.6,0.6-1.5,0-2.1l-5.8-5.8c-0.6-0.6-1.5-0.6-2.1,0
	c-0.5,0.5-0.6,1.4-0.1,1.9L7.5,10C6.9,9.5,6,9.6,5.5,10.3c-0.5,0.6-0.4,1.4,0.1,1.9l5.8,5.8c0.6,0.6,1.5,0.6,2.1,0c0,0,0,0,0,0l0,0
	c0.5-0.5,0.6-1.3,0.1-1.9l1.6-1.6l9.3,10.1c0.4,0.5,1,0.7,1.6,0.7h0.1c1.3,0,2.3-1,2.3-2.3c0-0.6-0.3-1.3-0.7-1.7L17.6,12.1z
	 M12.9,15.3l-4.6-4.6l5.6-5.6l4.6,4.6L12.9,15.3z M14,3.2c0.2-0.2,0.5-0.2,0.7,0l5.8,5.8c0.2,0.2,0.2,0.5,0,0.7
	c-0.2,0.2-0.5,0.2-0.7,0l-0.2-0.2l0,0L14,3.8C13.8,3.6,13.8,3.3,14,3.2L14,3.2z M12.8,17.3L12.8,17.3c-0.2,0.2-0.5,0.2-0.7,0
	l-5.8-5.8c-0.2-0.2-0.2-0.5,0-0.7s0.5-0.2,0.7,0l5.8,5.8C12.9,16.8,12.9,17.1,12.8,17.3z M27.1,24c-0.2,0.2-0.6,0.4-0.9,0.4
	c-0.3,0-0.7-0.2-0.9-0.4l-9.4-10.2l1-1l10.2,9.4C27.6,22.6,27.6,23.4,27.1,24C27.1,23.9,27.1,24,27.1,24L27.1,24z"/>
<path d="M17.2,25.7v-0.8c0-0.7-0.5-1.2-1.2-1.2h-1.2c-0.2-1.3-1.4-2.2-2.7-2.2H7.3c-1.3,0-2.5,0.9-2.7,2.2H3.4
	c-0.7,0-1.2,0.5-1.2,1.2v0.8c0,0.7,0.5,1.2,1.2,1.2H16C16.6,26.9,17.2,26.4,17.2,25.7C17.2,25.7,17.2,25.7,17.2,25.7z M7.3,22.5h4.8
	c0.8,0,1.4,0.5,1.6,1.2H5.7C5.9,23,6.6,22.5,7.3,22.5z M3.3,25.7v-0.8c0-0.1,0.1-0.2,0.2-0.2H16c0.1,0,0.2,0.1,0.2,0.2v0.8
	c0,0.1-0.1,0.2-0.2,0.2H3.4C3.4,25.9,3.3,25.8,3.3,25.7C3.3,25.7,3.3,25.7,3.3,25.7L3.3,25.7z"/>
</svg>
